<svg width="337" height="194" viewBox="0 0 337 194" fill="none" xmlns="http://www.w3.org/2000/svg">
<path d="M51.9433 107.088L50.4312 99.2318L66.1428 96.2076L60.0943 64.7844L52.2385 66.2965L50.7264 58.4407L58.5822 56.9286L57.0701 49.0728L72.7817 46.0486L81.8543 93.1833L97.5659 90.1591L99.0781 98.0149L51.9433 107.088ZM130.815 91.9059L129.303 84.0502L121.448 85.5623L119.935 77.7065L112.08 79.2186L107.543 55.6512L115.399 54.1391L113.887 46.2833L121.743 44.7712L120.231 36.9154L143.798 32.379L145.31 40.2348L153.166 38.7227L154.678 46.5785L162.534 45.0664L167.07 68.6338L159.214 70.1459L160.727 78.0017L152.871 79.5138L154.383 87.3696L130.815 91.9059ZM137.159 82.538L152.871 79.5138L146.822 48.0906L138.966 49.6027L137.454 41.7469L121.743 44.7712L127.791 76.1944L135.647 74.6822L137.159 82.538ZM201.832 78.2364L200.32 70.3806L192.464 71.8927L190.952 64.0369L183.096 65.5491L178.56 41.9817L186.415 40.4696L184.903 32.6138L192.759 31.1016L191.247 23.2459L214.814 18.7095L216.327 26.5653L224.182 25.0532L225.694 32.909L233.55 31.3969L238.087 54.9642L230.231 56.4764L231.743 64.3322L223.887 65.8443L225.399 73.7001L201.832 78.2364ZM208.176 68.8685L223.887 65.8443L217.839 34.4211L209.983 35.9332L208.471 28.0774L192.759 31.1016L198.808 62.5248L206.663 61.0127L208.176 68.8685ZM261.533 42.8136L257.114 43.6642L256.263 39.2453L265.101 37.5441L266.802 46.3819L262.383 47.2325L261.533 42.8136ZM282.776 34.1419L283.627 38.5608L279.208 39.4113L278.358 34.9924L282.776 34.1419ZM263.234 51.6514L254.396 53.3525L252.695 44.5147L257.114 43.6642L257.964 48.083L262.383 47.2325L263.234 51.6514ZM274.789 40.2619L279.208 39.4113L280.059 43.8302L275.64 44.6808L274.789 40.2619ZM271.221 45.5313L275.64 44.6808L276.49 49.0997L272.071 49.9502L271.221 45.5313ZM267.653 50.8008L272.071 49.9502L272.922 54.3691L268.503 55.2197L267.653 50.8008ZM264.084 56.0702L268.503 55.2197L269.354 59.6386L264.935 60.4891L264.084 56.0702ZM277.341 53.5186L286.179 51.8174L287.88 60.6552L283.461 61.5058L282.61 57.0869L278.191 57.9374L277.341 53.5186ZM260.516 61.3397L264.935 60.4891L265.785 64.908L261.367 65.7586L260.516 61.3397ZM279.042 62.3563L283.461 61.5058L284.312 65.9246L275.474 67.6258L273.773 58.788L278.191 57.9374L279.042 62.3563ZM256.948 66.6091L261.367 65.7586L262.217 70.1775L257.798 71.028L256.948 66.6091ZM35.9402 150.393L34.239 141.555L38.6579 140.705L37.8074 136.286L33.3885 137.136L31.6873 128.299L40.5251 126.597L42.2262 135.435L46.6451 134.585L44.944 125.747L49.3629 124.896L51.064 133.734L55.4829 132.884L53.7818 124.046L62.6195 122.345L64.3207 131.182L59.9018 132.033L60.7523 136.452L65.1712 135.601L66.8724 144.439L58.0346 146.14L56.3335 137.302L51.9146 138.153L53.6157 146.991L49.1968 147.841L47.4957 139.004L43.0768 139.854L44.7779 148.692L35.9402 150.393ZM80.3058 141.853L79.4552 137.434L75.0363 138.285L72.4846 125.028L76.9035 124.178L76.0529 119.759L98.1474 115.506L98.9979 119.925L103.417 119.074L105.118 127.912L83.0235 132.165L83.8741 136.584L101.55 133.182L102.4 137.601L80.3058 141.853ZM82.173 127.746L95.4296 125.194L94.579 120.776L81.3224 123.327L82.173 127.746ZM142.513 106.966L146.766 129.061L137.928 130.762L134.526 113.086L125.688 114.788L128.24 128.044L123.821 128.895L124.671 133.314L115.834 135.015L114.132 126.177L118.551 125.326L117.701 120.908L122.12 120.057L120.419 111.219L142.513 106.966ZM160.199 126.475L159.349 122.056L154.93 122.907L154.079 118.488L158.498 117.637L157.648 113.218L175.323 109.816L174.472 105.397L156.797 108.8L155.946 104.381L178.041 100.128L178.891 104.547L183.31 103.696L186.713 121.372L160.199 126.475ZM163.768 121.206L177.024 118.654L176.174 114.235L162.917 116.787L163.768 121.206ZM195.727 119.637L191.474 97.5422L200.312 95.841L202.013 104.679L215.27 102.127L213.569 93.2893L222.406 91.5882L226.659 113.683L217.821 115.384L216.12 106.546L202.864 109.098L204.565 117.935L195.727 119.637ZM242.81 101.409L247.229 100.558L248.08 104.977L243.661 105.827L244.512 110.246L235.674 111.947L231.421 89.8531L240.259 88.1519L242.81 101.409ZM262.353 83.8991L266.606 105.994L257.768 107.695L255.216 94.438L250.798 95.2886L249.947 90.8697L254.366 90.0191L253.515 85.6002L262.353 83.8991ZM246.379 96.1391L250.798 95.2886L251.648 99.7074L247.229 100.558L246.379 96.1391ZM275.62 104.258L273.919 95.4206L278.338 94.57L277.488 90.1511L273.069 91.0017L272.218 86.5828L276.637 85.7323L275.786 81.3134L302.3 76.21L306.553 98.3044L297.715 100.006L296.014 91.1678L282.757 93.7195L284.458 102.557L275.62 104.258ZM281.907 89.3006L295.163 86.7489L294.313 82.33L281.056 84.8817L281.907 89.3006ZM52.5991 165.517L55.1508 178.774L50.7319 179.624L51.5825 184.043L33.9069 187.445L34.7575 191.864L25.9197 193.565L20.8163 167.052L29.6541 165.351L30.5047 169.77L34.9235 168.919L35.7741 173.338L31.3552 174.189L33.0564 183.026L46.313 180.475L43.7613 167.218L34.9235 168.919L34.073 164.5L47.3296 161.949L48.1802 166.367L52.5991 165.517ZM69.4347 180.607L68.5842 176.188L64.1653 177.038L63.3147 172.619L67.7336 171.769L66.8831 167.35L84.5586 163.948L83.708 159.529L66.0325 162.931L65.1819 158.512L87.2763 154.259L88.1269 158.678L92.5458 157.828L95.9481 175.503L69.4347 180.607ZM73.0031 175.337L86.2597 172.786L85.4092 168.367L72.1525 170.918L73.0031 175.337ZM129.941 136.882L130.791 141.301L108.697 145.554L110.398 154.391L114.817 153.541L115.668 157.96L111.249 158.81L112.95 167.648L126.206 165.096L123.655 151.84L114.817 153.541L113.966 149.122L127.223 146.57L128.074 150.989L132.493 150.139L135.044 163.395L130.625 164.246L131.476 168.665L109.381 172.918L108.531 168.499L104.112 169.349L99.8592 147.255L104.278 146.404L103.428 141.985L129.941 136.882ZM149.328 165.228L148.478 160.81L144.059 161.66L141.507 148.403L145.926 147.553L145.075 143.134L167.17 138.881L168.02 143.3L172.439 142.45L174.991 155.706L170.572 156.557L171.423 160.976L149.328 165.228ZM152.897 159.959L166.153 157.407L163.601 144.151L150.345 146.702L152.897 159.959ZM198.113 155.838L194.71 138.163L185.873 139.864L185.022 135.445L211.535 130.342L212.386 134.76L203.548 136.462L206.95 154.137L198.113 155.838ZM229.222 149.85L228.371 145.431L223.952 146.282L223.102 141.863L227.52 141.012L226.67 136.594L244.345 133.191L243.495 128.772L225.819 132.175L224.969 127.756L247.063 123.503L247.914 127.922L252.333 127.071L255.735 144.747L229.222 149.85ZM232.79 144.581L246.047 142.029L245.196 137.61L231.939 140.162L232.79 144.581ZM278.006 140.46L274.604 122.784L265.766 124.486L264.915 120.067L291.429 114.963L292.279 119.382L283.442 121.083L286.844 138.759L278.006 140.46ZM304.696 135.323L300.443 113.228L309.281 111.527L310.982 120.365L328.658 116.963L329.508 121.381L333.927 120.531L334.778 124.95L330.359 125.8L331.209 130.219L304.696 135.323ZM312.683 129.203L325.94 126.651L325.089 122.232L311.833 124.784L312.683 129.203Z" fill="white"/>
<path d="M51.9433 107.088L45.0695 108.411L46.3926 115.285L53.2664 113.961L51.9433 107.088ZM50.4312 99.2318L49.1081 92.358L42.2342 93.6811L43.5573 100.555L50.4312 99.2318ZM66.1428 96.2076L67.4659 103.081L74.3397 101.758L73.0166 94.8845L66.1428 96.2076ZM60.0943 64.7844L66.9681 63.4613L65.645 56.5875L58.7712 57.9106L60.0943 64.7844ZM52.2385 66.2965L45.3647 67.6196L46.6878 74.4934L53.5616 73.1703L52.2385 66.2965ZM50.7264 58.4407L49.4033 51.5669L42.5295 52.89L43.8526 59.7638L50.7264 58.4407ZM58.5822 56.9286L59.9053 63.8024L66.7791 62.4793L65.456 55.6055L58.5822 56.9286ZM57.0701 49.0728L55.747 42.199L48.8731 43.5221L50.1962 50.3959L57.0701 49.0728ZM72.7817 46.0486L79.6555 44.7255L78.3324 37.8516L71.4585 39.1747L72.7817 46.0486ZM81.8543 93.1833L74.9805 94.5064L76.3036 101.38L83.1774 100.057L81.8543 93.1833ZM97.5659 90.1591L104.44 88.836L103.117 81.9622L96.2428 83.2853L97.5659 90.1591ZM99.0781 98.0149L100.401 104.889L107.275 103.566L105.952 96.6918L99.0781 98.0149ZM58.8171 105.764L57.305 97.9087L43.5573 100.555L45.0695 108.411L58.8171 105.764ZM51.7543 106.106L67.4659 103.081L64.8197 89.3337L49.1081 92.358L51.7543 106.106ZM73.0166 94.8845L66.9681 63.4613L53.2205 66.1075L59.2689 97.5307L73.0166 94.8845ZM58.7712 57.9106L50.9154 59.4227L53.5616 73.1703L61.4174 71.6582L58.7712 57.9106ZM59.1123 64.9734L57.6002 57.1176L43.8526 59.7638L45.3647 67.6196L59.1123 64.9734ZM52.0495 65.3145L59.9053 63.8024L57.2591 50.0548L49.4033 51.5669L52.0495 65.3145ZM65.456 55.6055L63.9439 47.7497L50.1962 50.3959L51.7084 58.2517L65.456 55.6055ZM58.3932 55.9466L74.1048 52.9224L71.4585 39.1747L55.747 42.199L58.3932 55.9466ZM65.9078 47.3717L74.9805 94.5064L88.7282 91.8602L79.6555 44.7255L65.9078 47.3717ZM83.1774 100.057L98.889 97.0329L96.2428 83.2853L80.5312 86.3095L83.1774 100.057ZM90.6921 91.4822L92.2042 99.338L105.952 96.6918L104.44 88.836L90.6921 91.4822ZM97.755 91.1411L50.6202 100.214L53.2664 113.961L100.401 104.889L97.755 91.1411ZM130.815 91.9059L123.942 93.2291L125.265 100.103L132.139 98.7798L130.815 91.9059ZM129.303 84.0502L136.177 82.7271L134.854 75.8532L127.98 77.1763L129.303 84.0502ZM121.448 85.5623L114.574 86.8854L115.897 93.7592L122.771 92.4361L121.448 85.5623ZM119.935 77.7065L126.809 76.3834L125.486 69.5096L118.612 70.8327L119.935 77.7065ZM112.08 79.2186L105.206 80.5417L106.529 87.4155L113.403 86.0924L112.08 79.2186ZM107.543 55.6512L106.22 48.7774L99.3464 50.1005L100.669 56.9743L107.543 55.6512ZM115.399 54.1391L116.722 61.0129L123.596 59.6898L122.273 52.816L115.399 54.1391ZM113.887 46.2833L112.564 39.4095L105.69 40.7326L107.013 47.6064L113.887 46.2833ZM121.743 44.7712L123.066 51.645L129.94 50.3219L128.617 43.4481L121.743 44.7712ZM120.231 36.9154L118.908 30.0416L112.034 31.3647L113.357 38.2385L120.231 36.9154ZM143.798 32.379L150.672 31.0559L149.349 24.1821L142.475 25.5052L143.798 32.379ZM145.31 40.2348L138.436 41.5579L139.759 48.4318L146.633 47.1087L145.31 40.2348ZM153.166 38.7227L160.04 37.3996L158.717 30.5258L151.843 31.8489L153.166 38.7227ZM154.678 46.5785L147.804 47.9016L149.127 54.7754L156.001 53.4523L154.678 46.5785ZM162.534 45.0664L169.408 43.7433L168.085 36.8695L161.211 38.1926L162.534 45.0664ZM167.07 68.6338L168.393 75.5076L175.267 74.1845L173.944 67.3107L167.07 68.6338ZM159.214 70.1459L157.891 63.2721L151.017 64.5952L152.341 71.469L159.214 70.1459ZM160.727 78.0017L162.05 84.8755L168.923 83.5524L167.6 76.6786L160.727 78.0017ZM152.871 79.5138L151.548 72.64L144.674 73.9631L145.997 80.8369L152.871 79.5138ZM154.383 87.3696L155.706 94.2434L162.58 92.9203L161.257 86.0465L154.383 87.3696ZM137.159 82.538L130.285 83.8611L131.608 90.735L138.482 89.4119L137.159 82.538ZM152.871 79.5138L154.194 86.3876L161.068 85.0645L159.745 78.1907L152.871 79.5138ZM146.822 48.0906L153.696 46.7675L152.373 39.8937L145.499 41.2168L146.822 48.0906ZM138.966 49.6027L132.093 50.9258L133.416 57.7997L140.29 56.4766L138.966 49.6027ZM137.454 41.7469L144.328 40.4238L143.005 33.55L136.131 34.8731L137.454 41.7469ZM121.743 44.7712L120.42 37.8974L113.546 39.2205L114.869 46.0943L121.743 44.7712ZM127.791 76.1944L120.917 77.5175L122.241 84.3913L129.114 83.0682L127.791 76.1944ZM135.647 74.6822L142.521 73.3591L141.198 66.4853L134.324 67.8084L135.647 74.6822ZM137.689 90.5828L136.177 82.7271L122.43 85.3733L123.942 93.2291L137.689 90.5828ZM127.98 77.1763L120.124 78.6884L122.771 92.4361L130.626 90.924L127.98 77.1763ZM128.321 84.2392L126.809 76.3834L113.062 79.0296L114.574 86.8854L128.321 84.2392ZM118.612 70.8327L110.757 72.3448L113.403 86.0924L121.259 84.5803L118.612 70.8327ZM118.953 77.8955L114.417 54.3281L100.669 56.9743L105.206 80.5417L118.953 77.8955ZM108.866 62.525L116.722 61.0129L114.076 47.2653L106.22 48.7774L108.866 62.525ZM122.273 52.816L120.761 44.9602L107.013 47.6064L108.525 55.4622L122.273 52.816ZM115.21 53.1571L123.066 51.645L120.42 37.8974L112.564 39.4095L115.21 53.1571ZM128.617 43.4481L127.104 35.5923L113.357 38.2385L114.869 46.0943L128.617 43.4481ZM121.554 43.7892L145.121 39.2529L142.475 25.5052L118.908 30.0416L121.554 43.7892ZM136.924 33.7021L138.436 41.5579L152.184 38.9117L150.672 31.0559L136.924 33.7021ZM146.633 47.1087L154.489 45.5965L151.843 31.8489L143.987 33.361L146.633 47.1087ZM146.292 40.0458L147.804 47.9016L161.552 45.2554L160.04 37.3996L146.292 40.0458ZM156.001 53.4523L163.857 51.9402L161.211 38.1926L153.355 39.7047L156.001 53.4523ZM155.66 46.3895L160.196 69.9569L173.944 67.3107L169.408 43.7433L155.66 46.3895ZM165.747 61.76L157.891 63.2721L160.538 77.0197L168.393 75.5076L165.747 61.76ZM152.341 71.469L153.853 79.3248L167.6 76.6786L166.088 68.8228L152.341 71.469ZM159.403 71.1279L151.548 72.64L154.194 86.3876L162.05 84.8755L159.403 71.1279ZM145.997 80.8369L147.509 88.6927L161.257 86.0465L159.745 78.1907L145.997 80.8369ZM153.06 80.4958L129.492 85.0321L132.139 98.7798L155.706 94.2434L153.06 80.4958ZM138.482 89.4119L154.194 86.3876L151.548 72.64L135.836 75.6642L138.482 89.4119ZM159.745 78.1907L153.696 46.7675L139.948 49.4137L145.997 80.8369L159.745 78.1907ZM145.499 41.2168L137.643 42.7289L140.29 56.4766L148.145 54.9644L145.499 41.2168ZM145.84 48.2796L144.328 40.4238L130.581 43.07L132.093 50.9258L145.84 48.2796ZM136.131 34.8731L120.42 37.8974L123.066 51.645L138.777 48.6208L136.131 34.8731ZM114.869 46.0943L120.917 77.5175L134.665 74.8713L128.617 43.4481L114.869 46.0943ZM129.114 83.0682L136.97 81.5561L134.324 67.8084L126.468 69.3205L129.114 83.0682ZM128.773 76.0053L130.285 83.8611L144.033 81.2149L142.521 73.3591L128.773 76.0053ZM201.832 78.2364L194.958 79.5595L196.281 86.4333L203.155 85.1102L201.832 78.2364ZM200.32 70.3806L207.194 69.0575L205.87 62.1837L198.997 63.5068L200.32 70.3806ZM192.464 71.8927L185.59 73.2158L186.913 80.0897L193.787 78.7666L192.464 71.8927ZM190.952 64.0369L197.826 62.7138L196.503 55.84L189.629 57.1631L190.952 64.0369ZM183.096 65.5491L176.222 66.8722L177.545 73.746L184.419 72.4229L183.096 65.5491ZM178.56 41.9817L177.237 35.1079L170.363 36.431L171.686 43.3048L178.56 41.9817ZM186.415 40.4696L187.739 47.3434L194.612 46.0203L193.289 39.1465L186.415 40.4696ZM184.903 32.6138L183.58 25.7399L176.706 27.063L178.03 33.9369L184.903 32.6138ZM192.759 31.1016L194.082 37.9755L200.956 36.6524L199.633 29.7785L192.759 31.1016ZM191.247 23.2459L189.924 16.372L183.05 17.6951L184.373 24.569L191.247 23.2459ZM214.814 18.7095L221.688 17.3864L220.365 10.5126L213.491 11.8357L214.814 18.7095ZM216.327 26.5653L209.453 27.8884L210.776 34.7622L217.65 33.4391L216.327 26.5653ZM224.182 25.0532L231.056 23.7301L229.733 16.8563L222.859 18.1794L224.182 25.0532ZM225.694 32.909L218.821 34.2321L220.144 41.1059L227.018 39.7828L225.694 32.909ZM233.55 31.3969L240.424 30.0738L239.101 23.1999L232.227 24.523L233.55 31.3969ZM238.087 54.9642L239.41 61.8381L246.284 60.515L244.96 53.6411L238.087 54.9642ZM230.231 56.4764L228.908 49.6025L222.034 50.9256L223.357 57.7995L230.231 56.4764ZM231.743 64.3322L233.066 71.206L239.94 69.8829L238.617 63.0091L231.743 64.3322ZM223.887 65.8443L222.564 58.9705L215.69 60.2936L217.013 67.1674L223.887 65.8443ZM225.399 73.7001L226.722 80.5739L233.596 79.2508L232.273 72.377L225.399 73.7001ZM208.176 68.8685L201.302 70.1916L202.625 77.0654L209.499 75.7423L208.176 68.8685ZM223.887 65.8443L225.21 72.7181L232.084 71.395L230.761 64.5212L223.887 65.8443ZM217.839 34.4211L224.712 33.098L223.389 26.2242L216.516 27.5473L217.839 34.4211ZM209.983 35.9332L203.109 37.2563L204.432 44.1301L211.306 42.807L209.983 35.9332ZM208.471 28.0774L215.345 26.7543L214.021 19.8805L207.148 21.2036L208.471 28.0774ZM192.759 31.1016L191.436 24.2278L184.562 25.5509L185.885 32.4248L192.759 31.1016ZM198.808 62.5248L191.934 63.8479L193.257 70.7218L200.131 69.3987L198.808 62.5248ZM206.663 61.0127L213.537 59.6896L212.214 52.8158L205.34 54.1389L206.663 61.0127ZM208.706 76.9133L207.194 69.0575L193.446 71.7037L194.958 79.5595L208.706 76.9133ZM198.997 63.5068L191.141 65.0189L193.787 78.7666L201.643 77.2544L198.997 63.5068ZM199.338 70.5696L197.826 62.7138L184.078 65.36L185.59 73.2158L199.338 70.5696ZM189.629 57.1631L181.773 58.6752L184.419 72.4229L192.275 70.9108L189.629 57.1631ZM189.97 64.226L185.433 40.6586L171.686 43.3048L176.222 66.8722L189.97 64.226ZM179.883 48.8555L187.739 47.3434L185.092 33.5957L177.237 35.1079L179.883 48.8555ZM193.289 39.1465L191.777 31.2907L178.03 33.9369L179.542 41.7927L193.289 39.1465ZM186.226 39.4876L194.082 37.9755L191.436 24.2278L183.58 25.7399L186.226 39.4876ZM199.633 29.7785L198.121 21.9228L184.373 24.569L185.885 32.4248L199.633 29.7785ZM192.57 30.1197L216.138 25.5833L213.491 11.8357L189.924 16.372L192.57 30.1197ZM207.941 20.0326L209.453 27.8884L223.2 25.2422L221.688 17.3864L207.941 20.0326ZM217.65 33.4391L225.505 31.927L222.859 18.1794L215.003 19.6915L217.65 33.4391ZM217.309 26.3763L218.821 34.2321L232.568 31.5859L231.056 23.7301L217.309 26.3763ZM227.018 39.7828L234.873 38.2707L232.227 24.523L224.371 26.0352L227.018 39.7828ZM226.676 32.72L231.213 56.2874L244.96 53.6411L240.424 30.0738L226.676 32.72ZM236.763 48.0904L228.908 49.6025L231.554 63.3502L239.41 61.8381L236.763 48.0904ZM223.357 57.7995L224.869 65.6553L238.617 63.0091L237.105 55.1533L223.357 57.7995ZM230.42 57.4583L222.564 58.9705L225.21 72.7181L233.066 71.206L230.42 57.4583ZM217.013 67.1674L218.525 75.0232L232.273 72.377L230.761 64.5212L217.013 67.1674ZM224.076 66.8263L200.509 71.3626L203.155 85.1102L226.722 80.5739L224.076 66.8263ZM209.499 75.7423L225.21 72.7181L222.564 58.9705L206.852 61.9947L209.499 75.7423ZM230.761 64.5212L224.712 33.098L210.965 35.7442L217.013 67.1674L230.761 64.5212ZM216.516 27.5473L208.66 29.0594L211.306 42.807L219.162 41.2949L216.516 27.5473ZM216.857 34.6101L215.345 26.7543L201.597 29.4005L203.109 37.2563L216.857 34.6101ZM207.148 21.2036L191.436 24.2278L194.082 37.9755L209.794 34.9512L207.148 21.2036ZM185.885 32.4248L191.934 63.8479L205.681 61.2017L199.633 29.7785L185.885 32.4248ZM200.131 69.3987L207.987 67.8865L205.34 54.1389L197.485 55.651L200.131 69.3987ZM199.79 62.3358L201.302 70.1916L215.049 67.5454L213.537 59.6896L199.79 62.3358ZM261.533 42.8136L268.406 41.4905L267.083 34.6167L260.209 35.9398L261.533 42.8136ZM257.114 43.6642L250.24 44.9873L251.563 51.8611L258.437 50.538L257.114 43.6642ZM256.263 39.2453L254.94 32.3715L248.066 33.6946L249.389 40.5684L256.263 39.2453ZM265.101 37.5441L271.975 36.221L270.652 29.3472L263.778 30.6703L265.101 37.5441ZM266.802 46.3819L268.125 53.2557L274.999 51.9326L273.676 45.0588L266.802 46.3819ZM262.383 47.2325L255.509 48.5556L256.832 55.4294L263.706 54.1063L262.383 47.2325ZM282.776 34.1419L289.65 32.8188L288.327 25.945L281.453 27.2681L282.776 34.1419ZM283.627 38.5608L284.95 45.4346L291.824 44.1115L290.501 37.2377L283.627 38.5608ZM279.208 39.4113L272.334 40.7344L273.657 47.6083L280.531 46.2851L279.208 39.4113ZM278.358 34.9924L277.034 28.1186L270.161 29.4417L271.484 36.3155L278.358 34.9924ZM263.234 51.6514L264.557 58.5252L271.431 57.2021L270.108 50.3283L263.234 51.6514ZM254.396 53.3525L247.522 54.6756L248.845 61.5494L255.719 60.2263L254.396 53.3525ZM252.695 44.5147L251.372 37.6409L244.498 38.964L245.821 45.8378L252.695 44.5147ZM257.114 43.6642L263.988 42.3411L262.664 35.4672L255.791 36.7903L257.114 43.6642ZM257.964 48.083L251.09 49.4061L252.414 56.28L259.287 54.9569L257.964 48.083ZM262.383 47.2325L269.257 45.9094L267.934 39.0356L261.06 40.3587L262.383 47.2325ZM274.789 40.2619L273.466 33.3881L266.592 34.7112L267.915 41.585L274.789 40.2619ZM279.208 39.4113L286.082 38.0882L284.759 31.2144L277.885 32.5375L279.208 39.4113ZM280.059 43.8302L281.382 50.704L288.256 49.3809L286.932 42.5071L280.059 43.8302ZM275.64 44.6808L268.766 46.0039L270.089 52.8777L276.963 51.5546L275.64 44.6808ZM271.221 45.5313L269.898 38.6575L263.024 39.9806L264.347 46.8544L271.221 45.5313ZM275.64 44.6808L282.514 43.3577L281.191 36.4839L274.317 37.807L275.64 44.6808ZM276.49 49.0997L277.813 55.9735L284.687 54.6504L283.364 47.7766L276.49 49.0997ZM272.071 49.9502L265.198 51.2733L266.521 58.1472L273.395 56.8241L272.071 49.9502ZM267.653 50.8008L266.329 43.927L259.456 45.2501L260.779 52.1239L267.653 50.8008ZM272.071 49.9502L278.945 48.6271L277.622 41.7533L270.748 43.0764L272.071 49.9502ZM272.922 54.3691L274.245 61.2429L281.119 59.9198L279.796 53.046L272.922 54.3691ZM268.503 55.2197L261.629 56.5428L262.952 63.4166L269.826 62.0935L268.503 55.2197ZM264.084 56.0702L262.761 49.1964L255.887 50.5195L257.21 57.3933L264.084 56.0702ZM268.503 55.2197L275.377 53.8966L274.054 47.0228L267.18 48.3459L268.503 55.2197ZM269.354 59.6386L270.677 66.5124L277.551 65.1893L276.228 58.3155L269.354 59.6386ZM264.935 60.4891L258.061 61.8122L259.384 68.6861L266.258 67.363L264.935 60.4891ZM277.341 53.5186L276.018 46.6447L269.144 47.9678L270.467 54.8417L277.341 53.5186ZM286.179 51.8174L293.053 50.4943L291.729 43.6205L284.856 44.9436L286.179 51.8174ZM287.88 60.6552L289.203 67.529L296.077 66.2059L294.754 59.3321L287.88 60.6552ZM283.461 61.5058L276.587 62.8289L277.91 69.7027L284.784 68.3796L283.461 61.5058ZM282.61 57.0869L289.484 55.7638L288.161 48.8899L281.287 50.2131L282.61 57.0869ZM278.191 57.9374L271.318 59.2605L272.641 66.1344L279.515 64.8113L278.191 57.9374ZM260.516 61.3397L259.193 54.4659L252.319 55.789L253.642 62.6628L260.516 61.3397ZM264.935 60.4891L271.809 59.166L270.486 52.2922L263.612 53.6153L264.935 60.4891ZM265.785 64.908L267.108 71.7818L273.982 70.4587L272.659 63.5849L265.785 64.908ZM261.367 65.7586L254.493 67.0817L255.816 73.9555L262.69 72.6324L261.367 65.7586ZM279.042 62.3563L272.168 63.6794L273.491 70.5532L280.365 69.2301L279.042 62.3563ZM283.461 61.5058L290.335 60.1827L289.012 53.3088L282.138 54.6319L283.461 61.5058ZM284.312 65.9246L285.635 72.7985L292.508 71.4754L291.185 64.6015L284.312 65.9246ZM275.474 67.6258L268.6 68.9489L269.923 75.8227L276.797 74.4996L275.474 67.6258ZM273.773 58.788L272.449 51.9142L265.576 53.2373L266.899 60.1111L273.773 58.788ZM278.191 57.9374L285.065 56.6143L283.742 49.7405L276.868 51.0636L278.191 57.9374ZM256.948 66.6091L255.625 59.7353L248.751 61.0584L250.074 67.9322L256.948 66.6091ZM261.367 65.7586L268.24 64.4355L266.917 57.5617L260.043 58.8848L261.367 65.7586ZM262.217 70.1775L263.54 77.0513L270.414 75.7282L269.091 68.8544L262.217 70.1775ZM257.798 71.028L250.924 72.3511L252.247 79.225L259.121 77.9019L257.798 71.028ZM260.209 35.9398L255.791 36.7903L258.437 50.538L262.856 49.6874L260.209 35.9398ZM263.988 42.3411L263.137 37.9222L249.389 40.5684L250.24 44.9873L263.988 42.3411ZM257.586 46.1191L266.424 44.418L263.778 30.6703L254.94 32.3715L257.586 46.1191ZM258.227 38.8672L259.928 47.705L273.676 45.0588L271.975 36.221L258.227 38.8672ZM265.479 39.5081L261.06 40.3587L263.706 54.1063L268.125 53.2557L265.479 39.5081ZM269.257 45.9094L268.406 41.4905L254.659 44.1367L255.509 48.5556L269.257 45.9094ZM275.903 35.465L276.753 39.8839L290.501 37.2377L289.65 32.8188L275.903 35.465ZM282.304 31.6869L277.885 32.5375L280.531 46.2851L284.95 45.4346L282.304 31.6869ZM286.082 38.0882L285.231 33.6693L271.484 36.3155L272.334 40.7344L286.082 38.0882ZM279.681 41.8663L284.1 41.0157L281.453 27.2681L277.034 28.1186L279.681 41.8663ZM261.911 44.7775L253.073 46.4787L255.719 60.2263L264.557 58.5252L261.911 44.7775ZM261.27 52.0294L259.569 43.1916L245.821 45.8378L247.522 54.6756L261.27 52.0294ZM254.018 51.3885L258.437 50.538L255.791 36.7903L251.372 37.6409L254.018 51.3885ZM250.24 44.9873L251.09 49.4061L264.838 46.7599L263.988 42.3411L250.24 44.9873ZM259.287 54.9569L263.706 54.1063L261.06 40.3587L256.641 41.2092L259.287 54.9569ZM255.509 48.5556L256.36 52.9745L270.108 50.3283L269.257 45.9094L255.509 48.5556ZM276.112 47.1357L280.531 46.2851L277.885 32.5375L273.466 33.3881L276.112 47.1357ZM272.334 40.7344L273.185 45.1533L286.932 42.5071L286.082 38.0882L272.334 40.7344ZM278.736 36.9564L274.317 37.807L276.963 51.5546L281.382 50.704L278.736 36.9564ZM282.514 43.3577L281.663 38.9388L267.915 41.585L268.766 46.0039L282.514 43.3577ZM272.544 52.4052L276.963 51.5546L274.317 37.807L269.898 38.6575L272.544 52.4052ZM268.766 46.0039L269.617 50.4228L283.364 47.7766L282.514 43.3577L268.766 46.0039ZM275.167 42.2258L270.748 43.0764L273.395 56.8241L277.813 55.9735L275.167 42.2258ZM278.945 48.6271L278.095 44.2082L264.347 46.8544L265.198 51.2733L278.945 48.6271ZM268.976 57.6746L273.395 56.8241L270.748 43.0764L266.329 43.927L268.976 57.6746ZM265.198 51.2733L266.048 55.6922L279.796 53.046L278.945 48.6271L265.198 51.2733ZM271.599 47.4953L267.18 48.3459L269.826 62.0935L274.245 61.2429L271.599 47.4953ZM275.377 53.8966L274.526 49.4777L260.779 52.1239L261.629 56.5428L275.377 53.8966ZM265.407 62.9441L269.826 62.0935L267.18 48.3459L262.761 49.1964L265.407 62.9441ZM261.629 56.5428L262.48 60.9617L276.228 58.3155L275.377 53.8966L261.629 56.5428ZM268.031 52.7647L263.612 53.6153L266.258 67.363L270.677 66.5124L268.031 52.7647ZM271.809 59.166L270.958 54.7471L257.21 57.3933L258.061 61.8122L271.809 59.166ZM278.664 60.3924L287.502 58.6912L284.856 44.9436L276.018 46.6447L278.664 60.3924ZM279.305 53.1405L281.006 61.9783L294.754 59.3321L293.053 50.4943L279.305 53.1405ZM286.557 53.7814L282.138 54.6319L284.784 68.3796L289.203 67.529L286.557 53.7814ZM290.335 60.1827L289.484 55.7638L275.737 58.41L276.587 62.8289L290.335 60.1827ZM281.287 50.2131L276.868 51.0636L279.515 64.8113L283.933 63.9607L281.287 50.2131ZM285.065 56.6143L284.215 52.1954L270.467 54.8417L271.318 59.2605L285.065 56.6143ZM261.839 68.2135L266.258 67.363L263.612 53.6153L259.193 54.4659L261.839 68.2135ZM258.061 61.8122L258.912 66.2311L272.659 63.5849L271.809 59.166L258.061 61.8122ZM264.462 58.0342L260.043 58.8848L262.69 72.6324L267.108 71.7818L264.462 58.0342ZM268.24 64.4355L267.39 60.0166L253.642 62.6628L254.493 67.0817L268.24 64.4355ZM280.365 69.2301L284.784 68.3796L282.138 54.6319L277.719 55.4825L280.365 69.2301ZM276.587 62.8289L277.438 67.2477L291.185 64.6015L290.335 60.1827L276.587 62.8289ZM282.988 59.0508L274.151 60.7519L276.797 74.4996L285.635 72.7985L282.988 59.0508ZM282.348 66.3027L280.646 57.4649L266.899 60.1111L268.6 68.9489L282.348 66.3027ZM275.096 65.6618L279.515 64.8113L276.868 51.0636L272.449 51.9142L275.096 65.6618ZM271.318 59.2605L272.168 63.6794L285.916 61.0332L285.065 56.6143L271.318 59.2605ZM258.271 73.483L262.69 72.6324L260.043 58.8848L255.625 59.7353L258.271 73.483ZM254.493 67.0817L255.343 71.5006L269.091 68.8544L268.24 64.4355L254.493 67.0817ZM260.894 63.3036L256.475 64.1542L259.121 77.9019L263.54 77.0513L260.894 63.3036ZM264.672 69.7049L263.821 65.286L250.074 67.9322L250.924 72.3511L264.672 69.7049ZM35.9402 150.393L29.0663 151.716L30.3894 158.59L37.2633 157.267L35.9402 150.393ZM34.239 141.555L32.9159 134.681L26.0421 136.005L27.3652 142.878L34.239 141.555ZM38.6579 140.705L39.981 147.579L46.8548 146.255L45.5317 139.382L38.6579 140.705ZM37.8074 136.286L44.6812 134.963L43.3581 128.089L36.4843 129.412L37.8074 136.286ZM33.3885 137.136L26.5146 138.459L27.8377 145.333L34.7116 144.01L33.3885 137.136ZM31.6873 128.299L30.3642 121.425L23.4904 122.748L24.8135 129.622L31.6873 128.299ZM40.5251 126.597L47.3989 125.274L46.0758 118.401L39.202 119.724L40.5251 126.597ZM42.2262 135.435L35.3524 136.758L36.6755 143.632L43.5493 142.309L42.2262 135.435ZM46.6451 134.585L47.9682 141.458L54.842 140.135L53.5189 133.262L46.6451 134.585ZM44.944 125.747L43.6209 118.873L36.7471 120.196L38.0702 127.07L44.944 125.747ZM49.3629 124.896L56.2367 123.573L54.9136 116.699L48.0398 118.023L49.3629 124.896ZM51.064 133.734L44.1902 135.057L45.5133 141.931L52.3871 140.608L51.064 133.734ZM55.4829 132.884L56.806 139.757L63.6798 138.434L62.3567 131.56L55.4829 132.884ZM53.7818 124.046L52.4587 117.172L45.5848 118.495L46.9079 125.369L53.7818 124.046ZM62.6195 122.345L69.4934 121.022L68.1703 114.148L61.2964 115.471L62.6195 122.345ZM64.3207 131.182L65.6438 138.056L72.5176 136.733L71.1945 129.859L64.3207 131.182ZM59.9018 132.033L58.5787 125.159L51.7049 126.482L53.028 133.356L59.9018 132.033ZM60.7523 136.452L53.8785 137.775L55.2016 144.649L62.0754 143.326L60.7523 136.452ZM65.1712 135.601L72.045 134.278L70.7219 127.404L63.8481 128.727L65.1712 135.601ZM66.8724 144.439L68.1955 151.313L75.0693 149.99L73.7462 143.116L66.8724 144.439ZM58.0346 146.14L51.1608 147.463L52.4839 154.337L59.3577 153.014L58.0346 146.14ZM56.3335 137.302L63.2073 135.979L61.8842 129.106L55.0104 130.429L56.3335 137.302ZM51.9146 138.153L50.5915 131.279L43.7176 132.602L45.0408 139.476L51.9146 138.153ZM53.6157 146.991L54.9388 153.865L61.8126 152.541L60.4895 145.668L53.6157 146.991ZM49.1968 147.841L42.323 149.164L43.6461 156.038L50.5199 154.715L49.1968 147.841ZM47.4957 139.004L54.3695 137.68L53.0464 130.807L46.1726 132.13L47.4957 139.004ZM43.0768 139.854L41.7537 132.98L34.8799 134.303L36.203 141.177L43.0768 139.854ZM44.7779 148.692L46.101 155.566L52.9749 154.243L51.6518 147.369L44.7779 148.692ZM42.814 149.07L41.1129 140.232L27.3652 142.878L29.0663 151.716L42.814 149.07ZM35.5621 148.429L39.981 147.579L37.3348 133.831L32.9159 134.681L35.5621 148.429ZM45.5317 139.382L44.6812 134.963L30.9335 137.609L31.7841 142.028L45.5317 139.382ZM36.4843 129.412L32.0654 130.263L34.7116 144.01L39.1305 143.16L36.4843 129.412ZM40.2623 135.813L38.5612 126.976L24.8135 129.622L26.5146 138.459L40.2623 135.813ZM33.0104 135.172L41.8482 133.471L39.202 119.724L30.3642 121.425L33.0104 135.172ZM33.6513 127.921L35.3524 136.758L49.1001 134.112L47.3989 125.274L33.6513 127.921ZM43.5493 142.309L47.9682 141.458L45.322 127.711L40.9031 128.561L43.5493 142.309ZM53.5189 133.262L51.8178 124.424L38.0702 127.07L39.7713 135.908L53.5189 133.262ZM46.2671 132.621L50.686 131.77L48.0398 118.023L43.6209 118.873L46.2671 132.621ZM42.4891 126.219L44.1902 135.057L57.9378 132.411L56.2367 123.573L42.4891 126.219ZM52.3871 140.608L56.806 139.757L54.1598 126.01L49.7409 126.86L52.3871 140.608ZM62.3567 131.56L60.6556 122.723L46.9079 125.369L48.6091 134.207L62.3567 131.56ZM55.1049 130.92L63.9426 129.218L61.2964 115.471L52.4587 117.172L55.1049 130.92ZM55.7457 123.668L57.4468 132.506L71.1945 129.859L69.4934 121.022L55.7457 123.668ZM62.9976 124.309L58.5787 125.159L61.2249 138.907L65.6438 138.056L62.9976 124.309ZM53.028 133.356L53.8785 137.775L67.6262 135.129L66.7756 130.71L53.028 133.356ZM62.0754 143.326L66.4943 142.475L63.8481 128.727L59.4292 129.578L62.0754 143.326ZM58.2974 136.924L59.9985 145.762L73.7462 143.116L72.045 134.278L58.2974 136.924ZM65.5493 137.565L56.7115 139.266L59.3577 153.014L68.1955 151.313L65.5493 137.565ZM64.9084 144.817L63.2073 135.979L49.4596 138.626L51.1608 147.463L64.9084 144.817ZM55.0104 130.429L50.5915 131.279L53.2377 145.027L57.6566 144.176L55.0104 130.429ZM45.0408 139.476L46.7419 148.314L60.4895 145.668L58.7884 136.83L45.0408 139.476ZM52.2926 140.117L47.8737 140.968L50.5199 154.715L54.9388 153.865L52.2926 140.117ZM56.0706 146.518L54.3695 137.68L40.6219 140.327L42.323 149.164L56.0706 146.518ZM46.1726 132.13L41.7537 132.98L44.3999 146.728L48.8188 145.877L46.1726 132.13ZM36.203 141.177L37.9041 150.015L51.6518 147.369L49.9506 138.531L36.203 141.177ZM43.4548 141.818L34.6171 143.519L37.2633 157.267L46.101 155.566L43.4548 141.818ZM80.3058 141.853L73.4319 143.176L74.755 150.05L81.6289 148.727L80.3058 141.853ZM79.4552 137.434L86.329 136.111L85.0059 129.238L78.1321 130.561L79.4552 137.434ZM75.0363 138.285L68.1625 139.608L69.4856 146.482L76.3594 145.159L75.0363 138.285ZM72.4846 125.028L71.1615 118.155L64.2877 119.478L65.6108 126.351L72.4846 125.028ZM76.9035 124.178L78.2266 131.052L85.1004 129.729L83.7773 122.855L76.9035 124.178ZM76.0529 119.759L74.7298 112.885L67.856 114.208L69.1791 121.082L76.0529 119.759ZM98.1474 115.506L105.021 114.183L103.698 107.309L96.8243 108.632L98.1474 115.506ZM98.9979 119.925L92.1241 121.248L93.4472 128.122L100.321 126.799L98.9979 119.925ZM103.417 119.074L110.291 117.751L108.968 110.878L102.094 112.201L103.417 119.074ZM105.118 127.912L106.441 134.786L113.315 133.463L111.992 126.589L105.118 127.912ZM83.0235 132.165L81.7004 125.291L74.8266 126.614L76.1497 133.488L83.0235 132.165ZM83.8741 136.584L77.0003 137.907L78.3234 144.781L85.1972 143.458L83.8741 136.584ZM101.55 133.182L108.423 131.859L107.1 124.985L100.227 126.308L101.55 133.182ZM102.4 137.601L103.723 144.474L110.597 143.151L109.274 136.277L102.4 137.601ZM82.173 127.746L75.2991 129.069L76.6222 135.943L83.4961 134.62L82.173 127.746ZM95.4296 125.194L96.7527 132.068L103.627 130.745L102.303 123.871L95.4296 125.194ZM94.579 120.776L101.453 119.452L100.13 112.579L93.2559 113.902L94.579 120.776ZM81.3224 123.327L79.9993 116.453L73.1255 117.777L74.4486 124.65L81.3224 123.327ZM87.1796 140.53L86.329 136.111L72.5814 138.758L73.4319 143.176L87.1796 140.53ZM78.1321 130.561L73.7132 131.411L76.3594 145.159L80.7783 144.308L78.1321 130.561ZM81.9101 136.962L79.3584 123.705L65.6108 126.351L68.1625 139.608L81.9101 136.962ZM73.8077 131.902L78.2266 131.052L75.5804 117.304L71.1615 118.155L73.8077 131.902ZM83.7773 122.855L82.9268 118.436L69.1791 121.082L70.0297 125.501L83.7773 122.855ZM77.376 126.633L99.4705 122.38L96.8243 108.632L74.7298 112.885L77.376 126.633ZM91.2735 116.829L92.1241 121.248L105.872 118.602L105.021 114.183L91.2735 116.829ZM100.321 126.799L104.74 125.948L102.094 112.201L97.6748 113.051L100.321 126.799ZM96.543 120.398L98.2441 129.235L111.992 126.589L110.291 117.751L96.543 120.398ZM103.795 121.038L81.7004 125.291L84.3466 139.039L106.441 134.786L103.795 121.038ZM76.1497 133.488L77.0003 137.907L90.7479 135.261L89.8973 130.842L76.1497 133.488ZM85.1972 143.458L102.873 140.055L100.227 126.308L82.551 129.71L85.1972 143.458ZM94.6758 134.505L95.5264 138.924L109.274 136.277L108.423 131.859L94.6758 134.505ZM101.077 130.727L78.9827 134.98L81.6289 148.727L103.723 144.474L101.077 130.727ZM83.4961 134.62L96.7527 132.068L94.1065 118.321L80.8499 120.872L83.4961 134.62ZM102.303 123.871L101.453 119.452L87.7052 122.099L88.5558 126.518L102.303 123.871ZM93.2559 113.902L79.9993 116.453L82.6455 130.201L95.9021 127.649L93.2559 113.902ZM74.4486 124.65L75.2991 129.069L89.0468 126.423L88.1962 122.004L74.4486 124.65ZM142.513 106.966L149.387 105.643L148.064 98.7695L141.19 100.093L142.513 106.966ZM146.766 129.061L148.089 135.935L154.963 134.612L153.64 127.738L146.766 129.061ZM137.928 130.762L131.054 132.085L132.377 138.959L139.251 137.636L137.928 130.762ZM134.526 113.086L141.4 111.763L140.076 104.89L133.203 106.213L134.526 113.086ZM125.688 114.788L124.365 107.914L117.491 109.237L118.814 116.111L125.688 114.788ZM128.24 128.044L129.563 134.918L136.437 133.595L135.114 126.721L128.24 128.044ZM123.821 128.895L122.498 122.021L115.624 123.344L116.947 130.218L123.821 128.895ZM124.671 133.314L125.994 140.187L132.868 138.864L131.545 131.991L124.671 133.314ZM115.834 135.015L108.96 136.338L110.283 143.212L117.157 141.889L115.834 135.015ZM114.132 126.177L112.809 119.303L105.936 120.626L107.259 127.5L114.132 126.177ZM118.551 125.326L119.874 132.2L126.748 130.877L125.425 124.003L118.551 125.326ZM117.701 120.908L116.378 114.034L109.504 115.357L110.827 122.231L117.701 120.908ZM122.12 120.057L123.443 126.931L130.317 125.608L128.993 118.734L122.12 120.057ZM120.419 111.219L119.095 104.345L112.222 105.669L113.545 112.542L120.419 111.219ZM135.639 108.29L139.892 130.384L153.64 127.738L149.387 105.643L135.639 108.29ZM145.443 122.187L136.605 123.888L139.251 137.636L148.089 135.935L145.443 122.187ZM144.802 129.439L141.4 111.763L127.652 114.41L131.054 132.085L144.802 129.439ZM133.203 106.213L124.365 107.914L127.011 121.661L135.849 119.96L133.203 106.213ZM118.814 116.111L121.366 129.367L135.114 126.721L132.562 113.464L118.814 116.111ZM126.917 121.17L122.498 122.021L125.144 135.769L129.563 134.918L126.917 121.17ZM116.947 130.218L117.798 134.637L131.545 131.991L130.695 127.572L116.947 130.218ZM123.348 126.44L114.51 128.141L117.157 141.889L125.994 140.187L123.348 126.44ZM122.707 133.692L121.006 124.854L107.259 127.5L108.96 136.338L122.707 133.692ZM115.456 133.051L119.874 132.2L117.228 118.453L112.809 119.303L115.456 133.051ZM125.425 124.003L124.575 119.584L110.827 122.231L111.678 126.65L125.425 124.003ZM119.024 127.781L123.443 126.931L120.797 113.183L116.378 114.034L119.024 127.781ZM128.993 118.734L127.292 109.896L113.545 112.542L115.246 121.38L128.993 118.734ZM121.742 118.093L143.836 113.84L141.19 100.093L119.095 104.345L121.742 118.093ZM160.199 126.475L153.325 127.798L154.648 134.672L161.522 133.349L160.199 126.475ZM159.349 122.056L166.222 120.733L164.899 113.859L158.026 115.182L159.349 122.056ZM154.93 122.907L148.056 124.23L149.379 131.104L156.253 129.781L154.93 122.907ZM154.079 118.488L152.756 111.614L145.882 112.937L147.205 119.811L154.079 118.488ZM158.498 117.637L159.821 124.511L166.695 123.188L165.372 116.314L158.498 117.637ZM157.648 113.218L156.324 106.345L149.451 107.668L150.774 114.542L157.648 113.218ZM175.323 109.816L176.646 116.69L183.52 115.367L182.197 108.493L175.323 109.816ZM174.472 105.397L181.346 104.074L180.023 97.2004L173.149 98.5235L174.472 105.397ZM156.797 108.8L149.923 110.123L151.246 116.997L158.12 115.673L156.797 108.8ZM155.946 104.381L154.623 97.5069L147.749 98.83L149.073 105.704L155.946 104.381ZM178.041 100.128L184.915 98.8048L183.592 91.931L176.718 93.2541L178.041 100.128ZM178.891 104.547L172.018 105.87L173.341 112.744L180.214 111.421L178.891 104.547ZM183.31 103.696L190.184 102.373L188.861 95.4993L181.987 96.8224L183.31 103.696ZM186.713 121.372L188.036 128.246L194.909 126.922L193.586 120.049L186.713 121.372ZM163.768 121.206L156.894 122.529L158.217 129.403L165.091 128.08L163.768 121.206ZM177.024 118.654L178.347 125.528L185.221 124.205L183.898 117.331L177.024 118.654ZM176.174 114.235L183.047 112.912L181.724 106.038L174.851 107.361L176.174 114.235ZM162.917 116.787L161.594 109.913L154.72 111.236L156.043 118.11L162.917 116.787ZM167.073 125.152L166.222 120.733L152.475 123.379L153.325 127.798L167.073 125.152ZM158.026 115.182L153.607 116.033L156.253 129.781L160.672 128.93L158.026 115.182ZM161.804 121.584L160.953 117.165L147.205 119.811L148.056 124.23L161.804 121.584ZM155.402 125.362L159.821 124.511L157.175 110.764L152.756 111.614L155.402 125.362ZM165.372 116.314L164.521 111.895L150.774 114.542L151.624 118.96L165.372 116.314ZM158.971 120.092L176.646 116.69L174 102.942L156.324 106.345L158.971 120.092ZM182.197 108.493L181.346 104.074L167.599 106.72L168.449 111.139L182.197 108.493ZM173.149 98.5235L155.474 101.926L158.12 115.673L175.796 112.271L173.149 98.5235ZM163.671 107.476L162.82 103.058L149.073 105.704L149.923 110.123L163.671 107.476ZM157.269 111.255L179.364 107.002L176.718 93.2541L154.623 97.5069L157.269 111.255ZM171.167 101.451L172.018 105.87L185.765 103.224L184.915 98.8048L171.167 101.451ZM180.214 111.421L184.633 110.57L181.987 96.8224L177.568 97.6729L180.214 111.421ZM176.436 105.019L179.839 122.695L193.586 120.049L190.184 102.373L176.436 105.019ZM185.389 114.498L158.876 119.601L161.522 133.349L188.036 128.246L185.389 114.498ZM165.091 128.08L178.347 125.528L175.701 111.78L162.444 114.332L165.091 128.08ZM183.898 117.331L183.047 112.912L169.3 115.558L170.15 119.977L183.898 117.331ZM174.851 107.361L161.594 109.913L164.24 123.661L177.497 121.109L174.851 107.361ZM156.043 118.11L156.894 122.529L170.641 119.883L169.791 115.464L156.043 118.11ZM195.727 119.637L188.853 120.96L190.176 127.834L197.05 126.51L195.727 119.637ZM191.474 97.5422L190.151 90.6683L183.277 91.9914L184.6 98.8653L191.474 97.5422ZM200.312 95.841L207.186 94.5179L205.863 87.6441L198.989 88.9672L200.312 95.841ZM202.013 104.679L195.139 106.002L196.462 112.876L203.336 111.553L202.013 104.679ZM215.27 102.127L216.593 109.001L223.467 107.678L222.144 100.804L215.27 102.127ZM213.569 93.2893L212.246 86.4155L205.372 87.7386L206.695 94.6124L213.569 93.2893ZM222.406 91.5882L229.28 90.2651L227.957 83.3913L221.083 84.7144L222.406 91.5882ZM226.659 113.683L227.982 120.556L234.856 119.233L233.533 112.36L226.659 113.683ZM217.821 115.384L210.948 116.707L212.271 123.581L219.145 122.258L217.821 115.384ZM216.12 106.546L222.994 105.223L221.671 98.3491L214.797 99.6722L216.12 106.546ZM202.864 109.098L201.541 102.224L194.667 103.547L195.99 110.421L202.864 109.098ZM204.565 117.935L205.888 124.809L212.762 123.486L211.439 116.612L204.565 117.935ZM202.601 118.313L198.348 96.2191L184.6 98.8653L188.853 120.96L202.601 118.313ZM192.797 104.416L201.635 102.715L198.989 88.9672L190.151 90.6683L192.797 104.416ZM193.438 97.1641L195.139 106.002L208.887 103.356L207.186 94.5179L193.438 97.1641ZM203.336 111.553L216.593 109.001L213.947 95.2533L200.69 97.805L203.336 111.553ZM222.144 100.804L220.442 91.9662L206.695 94.6124L208.396 103.45L222.144 100.804ZM214.892 100.163L223.729 98.462L221.083 84.7144L212.246 86.4155L214.892 100.163ZM215.533 92.9113L219.785 115.006L233.533 112.36L229.28 90.2651L215.533 92.9113ZM225.336 106.809L216.498 108.51L219.145 122.258L227.982 120.556L225.336 106.809ZM224.695 114.061L222.994 105.223L209.246 107.869L210.948 116.707L224.695 114.061ZM214.797 99.6722L201.541 102.224L204.187 115.972L217.443 113.42L214.797 99.6722ZM195.99 110.421L197.691 119.259L211.439 116.612L209.737 107.775L195.99 110.421ZM203.242 111.062L194.404 112.763L197.05 126.51L205.888 124.809L203.242 111.062ZM242.81 101.409L235.937 102.732L237.26 109.605L244.133 108.282L242.81 101.409ZM247.229 100.558L254.103 99.2349L252.78 92.3611L245.906 93.6842L247.229 100.558ZM248.08 104.977L249.403 111.851L256.277 110.528L254.954 103.654L248.08 104.977ZM243.661 105.827L242.338 98.9536L235.464 100.277L236.787 107.151L243.661 105.827ZM244.512 110.246L245.835 117.12L252.708 115.797L251.385 108.923L244.512 110.246ZM235.674 111.947L228.8 113.271L230.123 120.144L236.997 118.821L235.674 111.947ZM231.421 89.8531L230.098 82.9792L223.224 84.3023L224.547 91.1762L231.421 89.8531ZM240.259 88.1519L247.132 86.8288L245.809 79.955L238.936 81.2781L240.259 88.1519ZM262.353 83.8991L269.227 82.576L267.904 75.7022L261.03 77.0253L262.353 83.8991ZM266.606 105.994L267.929 112.867L274.803 111.544L273.48 104.67L266.606 105.994ZM257.768 107.695L250.894 109.018L252.217 115.892L259.091 114.568L257.768 107.695ZM255.216 94.438L262.09 93.1149L260.767 86.2411L253.893 87.5642L255.216 94.438ZM250.798 95.2886L243.924 96.6117L245.247 103.485L252.121 102.162L250.798 95.2886ZM249.947 90.8697L248.624 83.9959L241.75 85.319L243.073 92.1928L249.947 90.8697ZM254.366 90.0191L255.689 96.8929L262.563 95.5698L261.24 88.696L254.366 90.0191ZM253.515 85.6002L252.192 78.7264L245.318 80.0495L246.642 86.9233L253.515 85.6002ZM246.379 96.1391L245.056 89.2653L238.182 90.5884L239.505 97.4622L246.379 96.1391ZM250.798 95.2886L257.671 93.9655L256.348 87.0916L249.474 88.4147L250.798 95.2886ZM251.648 99.7074L252.971 106.581L259.845 105.258L258.522 98.3843L251.648 99.7074ZM247.229 100.558L240.355 101.881L241.679 108.755L248.552 107.432L247.229 100.558ZM244.133 108.282L248.552 107.432L245.906 93.6842L241.487 94.5348L244.133 108.282ZM240.355 101.881L241.206 106.3L254.954 103.654L254.103 99.2349L240.355 101.881ZM246.757 98.1031L242.338 98.9536L244.984 112.701L249.403 111.851L246.757 98.1031ZM236.787 107.151L237.638 111.569L251.385 108.923L250.535 104.504L236.787 107.151ZM243.188 103.373L234.351 105.074L236.997 118.821L245.835 117.12L243.188 103.373ZM242.548 110.624L238.295 88.53L224.547 91.1762L228.8 113.271L242.548 110.624ZM232.744 96.7269L241.582 95.0257L238.936 81.2781L230.098 82.9792L232.744 96.7269ZM233.385 89.475L235.937 102.732L249.684 100.085L247.132 86.8288L233.385 89.475ZM255.479 85.2222L259.732 107.317L273.48 104.67L269.227 82.576L255.479 85.2222ZM265.283 99.1197L256.445 100.821L259.091 114.568L267.929 112.867L265.283 99.1197ZM264.642 106.372L262.09 93.1149L248.343 95.7611L250.894 109.018L264.642 106.372ZM253.893 87.5642L249.474 88.4147L252.121 102.162L256.54 101.312L253.893 87.5642ZM257.671 93.9655L256.821 89.5466L243.073 92.1928L243.924 96.6117L257.671 93.9655ZM251.27 97.7435L255.689 96.8929L253.043 83.1453L248.624 83.9959L251.27 97.7435ZM261.24 88.696L260.389 84.2771L246.642 86.9233L247.492 91.3422L261.24 88.696ZM254.838 92.474L263.676 90.7729L261.03 77.0253L252.192 78.7264L254.838 92.474ZM247.702 103.013L252.121 102.162L249.474 88.4147L245.056 89.2653L247.702 103.013ZM243.924 96.6117L244.774 101.031L258.522 98.3843L257.671 93.9655L243.924 96.6117ZM250.325 92.8336L245.906 93.6842L248.552 107.432L252.971 106.581L250.325 92.8336ZM254.103 99.2349L253.253 94.816L239.505 97.4622L240.355 101.881L254.103 99.2349ZM275.62 104.258L268.747 105.581L270.07 112.455L276.944 111.132L275.62 104.258ZM273.919 95.4206L272.596 88.5468L265.722 89.8699L267.045 96.7437L273.919 95.4206ZM278.338 94.57L279.661 101.444L286.535 100.121L285.212 93.2469L278.338 94.57ZM277.488 90.1511L284.361 88.828L283.038 81.9542L276.165 83.2773L277.488 90.1511ZM273.069 91.0017L266.195 92.3248L267.518 99.1986L274.392 97.8755L273.069 91.0017ZM272.218 86.5828L270.895 79.709L264.021 81.0321L265.344 87.9059L272.218 86.5828ZM276.637 85.7323L277.96 92.6061L284.834 91.283L283.511 84.4092L276.637 85.7323ZM275.786 81.3134L274.463 74.4396L267.59 75.7627L268.913 82.6365L275.786 81.3134ZM302.3 76.21L309.174 74.8869L307.851 68.0131L300.977 69.3362L302.3 76.21ZM306.553 98.3044L307.876 105.178L314.75 103.855L313.426 96.9813L306.553 98.3044ZM297.715 100.006L290.841 101.329L292.164 108.202L299.038 106.879L297.715 100.006ZM296.014 91.1678L302.888 89.8447L301.564 82.9709L294.691 84.294L296.014 91.1678ZM282.757 93.7195L281.434 86.8456L274.56 88.1688L275.883 95.0426L282.757 93.7195ZM284.458 102.557L285.781 109.431L292.655 108.108L291.332 101.234L284.458 102.557ZM281.907 89.3006L275.033 90.6237L276.356 97.4975L283.23 96.1744L281.907 89.3006ZM295.163 86.7489L296.486 93.6227L303.36 92.2996L302.037 85.4258L295.163 86.7489ZM294.313 82.33L301.186 81.0069L299.863 74.1331L292.989 75.4562L294.313 82.33ZM281.056 84.8817L279.733 78.0079L272.859 79.331L274.182 86.2048L281.056 84.8817ZM282.494 102.935L280.793 94.0975L267.045 96.7437L268.747 105.581L282.494 102.935ZM275.242 102.294L279.661 101.444L277.015 87.6962L272.596 88.5468L275.242 102.294ZM285.212 93.2469L284.361 88.828L270.614 91.4743L271.464 95.8931L285.212 93.2469ZM276.165 83.2773L271.746 84.1279L274.392 97.8755L278.811 97.025L276.165 83.2773ZM279.943 89.6786L279.092 85.2597L265.344 87.9059L266.195 92.3248L279.943 89.6786ZM273.541 93.4567L277.96 92.6061L275.314 78.8584L270.895 79.709L273.541 93.4567ZM283.511 84.4092L282.66 79.9903L268.913 82.6365L269.763 87.0554L283.511 84.4092ZM277.11 88.1872L303.623 83.0838L300.977 69.3362L274.463 74.4396L277.11 88.1872ZM295.426 77.5331L299.679 99.6275L313.426 96.9813L309.174 74.8869L295.426 77.5331ZM305.23 91.4306L296.392 93.1317L299.038 106.879L307.876 105.178L305.23 91.4306ZM304.589 98.6824L302.888 89.8447L289.14 92.4909L290.841 101.329L304.589 98.6824ZM294.691 84.294L281.434 86.8456L284.08 100.593L297.337 98.0416L294.691 84.294ZM275.883 95.0426L277.584 103.88L291.332 101.234L289.631 92.3964L275.883 95.0426ZM283.135 95.6834L274.297 97.3845L276.944 111.132L285.781 109.431L283.135 95.6834ZM283.23 96.1744L296.486 93.6227L293.84 79.8751L280.583 82.4268L283.23 96.1744ZM302.037 85.4258L301.186 81.0069L287.439 83.6531L288.289 88.072L302.037 85.4258ZM292.989 75.4562L279.733 78.0079L282.379 91.7555L295.636 89.2038L292.989 75.4562ZM274.182 86.2048L275.033 90.6237L288.78 87.9775L287.93 83.5586L274.182 86.2048ZM52.5991 165.517L59.4729 164.194L58.1498 157.32L51.276 158.643L52.5991 165.517ZM55.1508 178.774L56.4739 185.647L63.3477 184.324L62.0246 177.45L55.1508 178.774ZM50.7319 179.624L49.4088 172.75L42.535 174.073L43.8581 180.947L50.7319 179.624ZM51.5825 184.043L52.9056 190.917L59.7794 189.594L58.4563 182.72L51.5825 184.043ZM33.9069 187.445L32.5838 180.571L25.71 181.895L27.0331 188.768L33.9069 187.445ZM34.7575 191.864L36.0806 198.738L42.9544 197.415L41.6313 190.541L34.7575 191.864ZM25.9197 193.565L19.0459 194.888L20.369 201.762L27.2428 200.439L25.9197 193.565ZM20.8163 167.052L19.4932 160.178L12.6194 161.501L13.9425 168.375L20.8163 167.052ZM29.6541 165.351L36.5279 164.028L35.2048 157.154L28.331 158.477L29.6541 165.351ZM30.5047 169.77L23.6308 171.093L24.9539 177.967L31.8278 176.644L30.5047 169.77ZM34.9235 168.919L41.7974 167.596L40.4743 160.722L33.6004 162.045L34.9235 168.919ZM35.7741 173.338L37.0972 180.212L43.971 178.889L42.6479 172.015L35.7741 173.338ZM31.3552 174.189L30.0321 167.315L23.1583 168.638L24.4814 175.512L31.3552 174.189ZM33.0564 183.026L26.1825 184.349L27.5056 191.223L34.3795 189.9L33.0564 183.026ZM46.313 180.475L47.6361 187.348L54.5099 186.025L53.1868 179.152L46.313 180.475ZM43.7613 167.218L50.6351 165.895L49.312 159.021L42.4382 160.344L43.7613 167.218ZM34.9235 168.919L28.0497 170.242L29.3728 177.116L36.2466 175.793L34.9235 168.919ZM34.073 164.5L32.7499 157.626L25.8761 158.95L27.1992 165.823L34.073 164.5ZM47.3296 161.949L54.2035 160.625L52.8804 153.752L46.0065 155.075L47.3296 161.949ZM48.1802 166.367L41.3064 167.691L42.6295 174.564L49.5033 173.241L48.1802 166.367ZM45.7253 166.84L48.277 180.097L62.0246 177.45L59.4729 164.194L45.7253 166.84ZM53.8277 171.9L49.4088 172.75L52.055 186.498L56.4739 185.647L53.8277 171.9ZM43.8581 180.947L44.7086 185.366L58.4563 182.72L57.6057 178.301L43.8581 180.947ZM50.2594 177.169L32.5838 180.571L35.23 194.319L52.9056 190.917L50.2594 177.169ZM27.0331 188.768L27.8837 193.187L41.6313 190.541L40.7807 186.122L27.0331 188.768ZM33.4344 184.99L24.5966 186.691L27.2428 200.439L36.0806 198.738L33.4344 184.99ZM32.7935 192.242L27.6901 165.729L13.9425 168.375L19.0459 194.888L32.7935 192.242ZM22.1394 173.926L30.9772 172.225L28.331 158.477L19.4932 160.178L22.1394 173.926ZM22.7803 166.674L23.6308 171.093L37.3785 168.447L36.5279 164.028L22.7803 166.674ZM31.8278 176.644L36.2466 175.793L33.6004 162.045L29.1816 162.896L31.8278 176.644ZM28.0497 170.242L28.9003 174.661L42.6479 172.015L41.7974 167.596L28.0497 170.242ZM34.451 166.464L30.0321 167.315L32.6783 181.062L37.0972 180.212L34.451 166.464ZM24.4814 175.512L26.1825 184.349L39.9302 181.703L38.229 172.865L24.4814 175.512ZM34.3795 189.9L47.6361 187.348L44.9899 173.601L31.7333 176.153L34.3795 189.9ZM53.1868 179.152L50.6351 165.895L36.8875 168.541L39.4392 181.798L53.1868 179.152ZM42.4382 160.344L33.6004 162.045L36.2466 175.793L45.0844 174.092L42.4382 160.344ZM41.7974 167.596L40.9468 163.177L27.1992 165.823L28.0497 170.242L41.7974 167.596ZM35.3961 171.374L48.6527 168.822L46.0065 155.075L32.7499 157.626L35.3961 171.374ZM40.4558 163.272L41.3064 167.691L55.054 165.044L54.2035 160.625L40.4558 163.272ZM49.5033 173.241L53.9222 172.391L51.276 158.643L46.8571 159.494L49.5033 173.241ZM69.4347 180.607L62.5609 181.93L63.884 188.804L70.7579 187.481L69.4347 180.607ZM68.5842 176.188L75.458 174.865L74.1349 167.991L67.2611 169.314L68.5842 176.188ZM64.1653 177.038L57.2915 178.361L58.6146 185.235L65.4884 183.912L64.1653 177.038ZM63.3147 172.619L61.9916 165.746L55.1178 167.069L56.4409 173.943L63.3147 172.619ZM67.7336 171.769L69.0567 178.643L75.9305 177.32L74.6074 170.446L67.7336 171.769ZM66.8831 167.35L65.56 160.476L58.6861 161.799L60.0092 168.673L66.8831 167.35ZM84.5586 163.948L85.8817 170.822L92.7555 169.498L91.4324 162.625L84.5586 163.948ZM83.708 159.529L90.5818 158.206L89.2587 151.332L82.3849 152.655L83.708 159.529ZM66.0325 162.931L59.1587 164.254L60.4818 171.128L67.3556 169.805L66.0325 162.931ZM65.1819 158.512L63.8588 151.638L56.985 152.962L58.3081 159.835L65.1819 158.512ZM87.2763 154.259L94.1502 152.936L92.8271 146.063L85.9532 147.386L87.2763 154.259ZM88.1269 158.678L81.2531 160.001L82.5762 166.875L89.45 165.552L88.1269 158.678ZM92.5458 157.828L99.4196 156.505L98.0965 149.631L91.2227 150.954L92.5458 157.828ZM95.9481 175.503L97.2712 182.377L104.145 181.054L102.822 174.18L95.9481 175.503ZM73.0031 175.337L66.1292 176.66L67.4523 183.534L74.3262 182.211L73.0031 175.337ZM86.2597 172.786L87.5828 179.659L94.4566 178.336L93.1335 171.462L86.2597 172.786ZM85.4092 168.367L92.283 167.044L90.9599 160.17L84.0861 161.493L85.4092 168.367ZM72.1525 170.918L70.8294 164.045L63.9556 165.368L65.2787 172.241L72.1525 170.918ZM76.3086 179.284L75.458 174.865L61.7104 177.511L62.5609 181.93L76.3086 179.284ZM67.2611 169.314L62.8422 170.165L65.4884 183.912L69.9073 183.062L67.2611 169.314ZM71.0391 175.715L70.1886 171.296L56.4409 173.943L57.2915 178.361L71.0391 175.715ZM64.6378 179.493L69.0567 178.643L66.4105 164.895L61.9916 165.746L64.6378 179.493ZM74.6074 170.446L73.7569 166.027L60.0092 168.673L60.8598 173.092L74.6074 170.446ZM68.2062 174.224L85.8817 170.822L83.2355 157.074L65.56 160.476L68.2062 174.224ZM91.4324 162.625L90.5818 158.206L76.8342 160.852L77.6848 165.271L91.4324 162.625ZM82.3849 152.655L64.7094 156.057L67.3556 169.805L85.0311 166.403L82.3849 152.655ZM72.9063 161.608L72.0557 157.189L58.3081 159.835L59.1587 164.254L72.9063 161.608ZM66.505 165.386L88.5994 161.133L85.9532 147.386L63.8588 151.638L66.505 165.386ZM80.4025 155.583L81.2531 160.001L95.0007 157.355L94.1502 152.936L80.4025 155.583ZM89.45 165.552L93.8689 164.702L91.2227 150.954L86.8038 151.805L89.45 165.552ZM85.672 159.151L89.0742 176.826L102.822 174.18L99.4196 156.505L85.672 159.151ZM94.625 168.629L68.1116 173.733L70.7579 187.481L97.2712 182.377L94.625 168.629ZM74.3262 182.211L87.5828 179.659L84.9366 165.912L71.68 168.463L74.3262 182.211ZM93.1335 171.462L92.283 167.044L78.5353 169.69L79.3859 174.109L93.1335 171.462ZM84.0861 161.493L70.8294 164.045L73.4756 177.792L86.7323 175.24L84.0861 161.493ZM65.2787 172.241L66.1292 176.66L79.8769 174.014L79.0263 169.595L65.2787 172.241ZM129.941 136.882L136.815 135.559L135.492 128.685L128.618 130.008L129.941 136.882ZM130.791 141.301L132.114 148.175L138.988 146.852L137.665 139.978L130.791 141.301ZM108.697 145.554L107.374 138.68L100.5 140.003L101.823 146.877L108.697 145.554ZM110.398 154.391L103.524 155.715L104.847 162.588L111.721 161.265L110.398 154.391ZM114.817 153.541L121.691 152.218L120.368 145.344L113.494 146.667L114.817 153.541ZM115.668 157.96L116.991 164.834L123.864 163.511L122.541 156.637L115.668 157.96ZM111.249 158.81L109.926 151.937L103.052 153.26L104.375 160.133L111.249 158.81ZM112.95 167.648L106.076 168.971L107.399 175.845L114.273 174.522L112.95 167.648ZM126.206 165.096L127.53 171.97L134.403 170.647L133.08 163.773L126.206 165.096ZM123.655 151.84L130.529 150.517L129.205 143.643L122.332 144.966L123.655 151.84ZM114.817 153.541L107.943 154.864L109.266 161.738L116.14 160.415L114.817 153.541ZM113.966 149.122L112.643 142.248L105.769 143.571L107.093 150.445L113.966 149.122ZM127.223 146.57L134.097 145.247L132.774 138.373L125.9 139.697L127.223 146.57ZM128.074 150.989L121.2 152.312L122.523 159.186L129.397 157.863L128.074 150.989ZM132.493 150.139L139.366 148.816L138.043 141.942L131.169 143.265L132.493 150.139ZM135.044 163.395L136.367 170.269L143.241 168.946L141.918 162.072L135.044 163.395ZM130.625 164.246L129.302 157.372L122.428 158.695L123.751 165.569L130.625 164.246ZM131.476 168.665L132.799 175.539L139.673 174.215L138.35 167.342L131.476 168.665ZM109.381 172.918L102.508 174.241L103.831 181.114L110.705 179.791L109.381 172.918ZM108.531 168.499L115.405 167.176L114.082 160.302L107.208 161.625L108.531 168.499ZM104.112 169.349L97.2382 170.672L98.5613 177.546L105.435 176.223L104.112 169.349ZM99.8592 147.255L98.5361 140.381L91.6623 141.704L92.9854 148.578L99.8592 147.255ZM104.278 146.404L105.601 153.278L112.475 151.955L111.152 145.081L104.278 146.404ZM103.428 141.985L102.104 135.112L95.2306 136.435L96.5537 143.308L103.428 141.985ZM123.067 138.205L123.918 142.624L137.665 139.978L136.815 135.559L123.067 138.205ZM129.468 134.427L107.374 138.68L110.02 152.428L132.114 148.175L129.468 134.427ZM101.823 146.877L103.524 155.715L117.272 153.068L115.571 144.231L101.823 146.877ZM111.721 161.265L116.14 160.415L113.494 146.667L109.075 147.518L111.721 161.265ZM107.943 154.864L108.794 159.283L122.541 156.637L121.691 152.218L107.943 154.864ZM114.344 151.086L109.926 151.937L112.572 165.684L116.991 164.834L114.344 151.086ZM104.375 160.133L106.076 168.971L119.824 166.325L118.122 157.487L104.375 160.133ZM114.273 174.522L127.53 171.97L124.883 158.223L111.627 160.774L114.273 174.522ZM133.08 163.773L130.529 150.517L116.781 153.163L119.333 166.42L133.08 163.773ZM122.332 144.966L113.494 146.667L116.14 160.415L124.978 158.714L122.332 144.966ZM121.691 152.218L120.84 147.799L107.093 150.445L107.943 154.864L121.691 152.218ZM115.29 155.996L128.546 153.444L125.9 139.697L112.643 142.248L115.29 155.996ZM120.349 147.893L121.2 152.312L134.947 149.666L134.097 145.247L120.349 147.893ZM129.397 157.863L133.816 157.012L131.169 143.265L126.751 144.115L129.397 157.863ZM125.619 151.462L128.17 164.718L141.918 162.072L139.366 148.816L125.619 151.462ZM133.721 156.521L129.302 157.372L131.948 171.12L136.367 170.269L133.721 156.521ZM123.751 165.569L124.602 169.988L138.35 167.342L137.499 162.923L123.751 165.569ZM130.153 161.791L108.058 166.044L110.705 179.791L132.799 175.539L130.153 161.791ZM116.255 171.594L115.405 167.176L101.657 169.822L102.508 174.241L116.255 171.594ZM107.208 161.625L102.789 162.475L105.435 176.223L109.854 175.373L107.208 161.625ZM110.986 168.026L106.733 145.932L92.9854 148.578L97.2382 170.672L110.986 168.026ZM101.182 154.129L105.601 153.278L102.955 139.53L98.5361 140.381L101.182 154.129ZM111.152 145.081L110.301 140.662L96.5537 143.308L97.4043 147.727L111.152 145.081ZM104.751 148.859L131.264 143.756L128.618 130.008L102.104 135.112L104.751 148.859ZM149.328 165.228L142.454 166.552L143.777 173.425L150.651 172.102L149.328 165.228ZM148.478 160.81L155.351 159.486L154.028 152.613L147.155 153.936L148.478 160.81ZM144.059 161.66L137.185 162.983L138.508 169.857L145.382 168.534L144.059 161.66ZM141.507 148.403L140.184 141.53L133.31 142.853L134.633 149.727L141.507 148.403ZM145.926 147.553L147.249 154.427L154.123 153.104L152.8 146.23L145.926 147.553ZM145.075 143.134L143.752 136.26L136.878 137.583L138.202 144.457L145.075 143.134ZM167.17 138.881L174.044 137.558L172.72 130.684L165.847 132.007L167.17 138.881ZM168.02 143.3L161.147 144.623L162.47 151.497L169.343 150.174L168.02 143.3ZM172.439 142.45L179.313 141.126L177.99 134.253L171.116 135.576L172.439 142.45ZM174.991 155.706L176.314 162.58L183.188 161.257L181.865 154.383L174.991 155.706ZM170.572 156.557L169.249 149.683L162.375 151.006L163.698 157.88L170.572 156.557ZM171.423 160.976L172.746 167.849L179.62 166.526L178.296 159.653L171.423 160.976ZM152.897 159.959L146.023 161.282L147.346 168.156L154.22 166.833L152.897 159.959ZM166.153 157.407L167.476 164.281L174.35 162.958L173.027 156.084L166.153 157.407ZM163.601 144.151L170.475 142.828L169.152 135.954L162.278 137.277L163.601 144.151ZM150.345 146.702L149.022 139.829L142.148 141.152L143.471 148.025L150.345 146.702ZM156.202 163.905L155.351 159.486L141.604 162.133L142.454 166.552L156.202 163.905ZM147.155 153.936L142.736 154.786L145.382 168.534L149.801 167.683L147.155 153.936ZM150.933 160.337L148.381 147.08L134.633 149.727L137.185 162.983L150.933 160.337ZM142.83 155.277L147.249 154.427L144.603 140.679L140.184 141.53L142.83 155.277ZM152.8 146.23L151.949 141.811L138.202 144.457L139.052 148.876L152.8 146.23ZM146.398 150.008L168.493 145.755L165.847 132.007L143.752 136.26L146.398 150.008ZM160.296 140.204L161.147 144.623L174.894 141.977L174.044 137.558L160.296 140.204ZM169.343 150.174L173.762 149.323L171.116 135.576L166.697 136.426L169.343 150.174ZM165.565 143.773L168.117 157.029L181.865 154.383L179.313 141.126L165.565 143.773ZM173.668 148.832L169.249 149.683L171.895 163.431L176.314 162.58L173.668 148.832ZM163.698 157.88L164.549 162.299L178.296 159.653L177.446 155.234L163.698 157.88ZM170.1 154.102L148.005 158.355L150.651 172.102L172.746 167.849L170.1 154.102ZM154.22 166.833L167.476 164.281L164.83 150.534L151.573 153.085L154.22 166.833ZM173.027 156.084L170.475 142.828L156.728 145.474L159.279 158.73L173.027 156.084ZM162.278 137.277L149.022 139.829L151.668 153.576L164.925 151.024L162.278 137.277ZM143.471 148.025L146.023 161.282L159.77 158.636L157.219 145.379L143.471 148.025ZM198.113 155.838L191.239 157.161L192.562 164.035L199.436 162.712L198.113 155.838ZM194.71 138.163L201.584 136.84L200.261 129.966L193.387 131.289L194.71 138.163ZM185.873 139.864L178.999 141.187L180.322 148.061L187.196 146.738L185.873 139.864ZM185.022 135.445L183.699 128.571L176.825 129.894L178.148 136.768L185.022 135.445ZM211.535 130.342L218.409 129.018L217.086 122.145L210.212 123.468L211.535 130.342ZM212.386 134.76L213.709 141.634L220.583 140.311L219.26 133.437L212.386 134.76ZM203.548 136.462L202.225 129.588L195.351 130.911L196.674 137.785L203.548 136.462ZM206.95 154.137L208.274 161.011L215.147 159.688L213.824 152.814L206.95 154.137ZM204.986 154.515L201.584 136.84L187.837 139.486L191.239 157.161L204.986 154.515ZM193.387 131.289L184.55 132.99L187.196 146.738L196.034 145.037L193.387 131.289ZM192.746 138.541L191.896 134.122L178.148 136.768L178.999 141.187L192.746 138.541ZM186.345 142.319L212.858 137.215L210.212 123.468L183.699 128.571L186.345 142.319ZM204.662 131.665L205.512 136.084L219.26 133.437L218.409 129.018L204.662 131.665ZM211.063 127.887L202.225 129.588L204.871 143.335L213.709 141.634L211.063 127.887ZM196.674 137.785L200.077 155.46L213.824 152.814L210.422 135.138L196.674 137.785ZM205.627 147.263L196.79 148.964L199.436 162.712L208.274 161.011L205.627 147.263ZM229.222 149.85L222.348 151.173L223.671 158.047L230.545 156.724L229.222 149.85ZM228.371 145.431L235.245 144.108L233.922 137.234L227.048 138.558L228.371 145.431ZM223.952 146.282L217.078 147.605L218.401 154.479L225.275 153.156L223.952 146.282ZM223.102 141.863L221.778 134.989L214.905 136.312L216.228 143.186L223.102 141.863ZM227.52 141.012L228.844 147.886L235.717 146.563L234.394 139.689L227.52 141.012ZM226.67 136.594L225.347 129.72L218.473 131.043L219.796 137.917L226.67 136.594ZM244.345 133.191L245.669 140.065L252.542 138.742L251.219 131.868L244.345 133.191ZM243.495 128.772L250.369 127.449L249.046 120.576L242.172 121.899L243.495 128.772ZM225.819 132.175L218.946 133.498L220.269 140.372L227.142 139.049L225.819 132.175ZM224.969 127.756L223.646 120.882L216.772 122.205L218.095 129.079L224.969 127.756ZM247.063 123.503L253.937 122.18L252.614 115.306L245.74 116.629L247.063 123.503ZM247.914 127.922L241.04 129.245L242.363 136.119L249.237 134.796L247.914 127.922ZM252.333 127.071L259.206 125.748L257.883 118.874L251.01 120.197L252.333 127.071ZM255.735 144.747L257.058 151.621L263.932 150.298L262.609 143.424L255.735 144.747ZM232.79 144.581L225.916 145.904L227.239 152.778L234.113 151.455L232.79 144.581ZM246.047 142.029L247.37 148.903L254.243 147.58L252.92 140.706L246.047 142.029ZM245.196 137.61L252.07 136.287L250.747 129.413L243.873 130.736L245.196 137.61ZM231.939 140.162L230.616 133.288L223.742 134.611L225.066 141.485L231.939 140.162ZM236.095 148.527L235.245 144.108L221.497 146.754L222.348 151.173L236.095 148.527ZM227.048 138.558L222.629 139.408L225.275 153.156L229.694 152.305L227.048 138.558ZM230.826 144.959L229.975 140.54L216.228 143.186L217.078 147.605L230.826 144.959ZM224.425 148.737L228.844 147.886L226.197 134.139L221.778 134.989L224.425 148.737ZM234.394 139.689L233.544 135.27L219.796 137.917L220.647 142.336L234.394 139.689ZM227.993 143.467L245.669 140.065L243.022 126.318L225.347 129.72L227.993 143.467ZM251.219 131.868L250.369 127.449L236.621 130.096L237.472 134.514L251.219 131.868ZM242.172 121.899L224.496 125.301L227.142 139.049L244.818 135.646L242.172 121.899ZM232.693 130.852L231.843 126.433L218.095 129.079L218.946 133.498L232.693 130.852ZM226.292 134.63L248.386 130.377L245.74 116.629L223.646 120.882L226.292 134.63ZM240.189 124.826L241.04 129.245L254.788 126.599L253.937 122.18L240.189 124.826ZM249.237 134.796L253.656 133.945L251.01 120.197L246.591 121.048L249.237 134.796ZM245.459 128.394L248.861 146.07L262.609 143.424L259.206 125.748L245.459 128.394ZM254.412 137.873L227.898 142.976L230.545 156.724L257.058 151.621L254.412 137.873ZM234.113 151.455L247.37 148.903L244.723 135.155L231.467 137.707L234.113 151.455ZM252.92 140.706L252.07 136.287L238.322 138.933L239.173 143.352L252.92 140.706ZM243.873 130.736L230.616 133.288L233.262 147.036L246.519 144.484L243.873 130.736ZM225.066 141.485L225.916 145.904L239.664 143.258L238.813 138.839L225.066 141.485ZM278.006 140.46L271.132 141.783L272.455 148.657L279.329 147.334L278.006 140.46ZM274.604 122.784L281.478 121.461L280.155 114.588L273.281 115.911L274.604 122.784ZM265.766 124.486L258.892 125.809L260.215 132.683L267.089 131.359L265.766 124.486ZM264.915 120.067L263.592 113.193L256.719 114.516L258.042 121.39L264.915 120.067ZM291.429 114.963L298.303 113.64L296.98 106.766L290.106 108.089L291.429 114.963ZM292.279 119.382L293.602 126.256L300.476 124.933L299.153 118.059L292.279 119.382ZM283.442 121.083L282.118 114.21L275.245 115.533L276.568 122.406L283.442 121.083ZM286.844 138.759L288.167 145.633L295.041 144.31L293.718 137.436L286.844 138.759ZM284.88 139.137L281.478 121.461L267.73 124.108L271.132 141.783L284.88 139.137ZM273.281 115.911L264.443 117.612L267.089 131.359L275.927 129.658L273.281 115.911ZM272.64 123.163L271.789 118.744L258.042 121.39L258.892 125.809L272.64 123.163ZM266.239 126.941L292.752 121.837L290.106 108.089L263.592 113.193L266.239 126.941ZM284.555 116.286L285.406 120.705L299.153 118.059L298.303 113.64L284.555 116.286ZM290.956 112.508L282.118 114.21L284.765 127.957L293.602 126.256L290.956 112.508ZM276.568 122.406L279.97 140.082L293.718 137.436L290.315 119.76L276.568 122.406ZM285.521 131.885L276.683 133.586L279.329 147.334L288.167 145.633L285.521 131.885ZM304.696 135.323L297.822 136.646L299.145 143.52L306.019 142.196L304.696 135.323ZM300.443 113.228L299.12 106.354L292.246 107.677L293.57 114.551L300.443 113.228ZM309.281 111.527L316.155 110.204L314.832 103.33L307.958 104.653L309.281 111.527ZM310.982 120.365L304.108 121.688L305.432 128.562L312.305 127.239L310.982 120.365ZM328.658 116.963L335.532 115.639L334.208 108.766L327.335 110.089L328.658 116.963ZM329.508 121.381L322.635 122.705L323.958 129.578L330.831 128.255L329.508 121.381ZM333.927 120.531L340.801 119.208L339.478 112.334L332.604 113.657L333.927 120.531ZM334.778 124.95L336.101 131.824L342.975 130.5L341.652 123.627L334.778 124.95ZM330.359 125.8L329.036 118.926L322.162 120.25L323.485 127.123L330.359 125.8ZM331.209 130.219L332.533 137.093L339.406 135.77L338.083 128.896L331.209 130.219ZM312.683 129.203L305.81 130.526L307.133 137.399L314.006 136.076L312.683 129.203ZM325.94 126.651L327.263 133.525L334.137 132.202L332.814 125.328L325.94 126.651ZM325.089 122.232L331.963 120.909L330.64 114.035L323.766 115.358L325.089 122.232ZM311.833 124.784L310.51 117.91L303.636 119.233L304.959 126.107L311.833 124.784ZM311.57 133.999L307.317 111.905L293.57 114.551L297.822 136.646L311.57 133.999ZM301.766 120.102L310.604 118.401L307.958 104.653L299.12 106.354L301.766 120.102ZM302.407 112.85L304.108 121.688L317.856 119.042L316.155 110.204L302.407 112.85ZM312.305 127.239L329.981 123.836L327.335 110.089L309.659 113.491L312.305 127.239ZM321.784 118.286L322.635 122.705L336.382 120.058L335.532 115.639L321.784 118.286ZM330.831 128.255L335.25 127.405L332.604 113.657L328.185 114.508L330.831 128.255ZM327.053 121.854L327.904 126.273L341.652 123.627L340.801 119.208L327.053 121.854ZM333.455 118.076L329.036 118.926L331.682 132.674L336.101 131.824L333.455 118.076ZM323.485 127.123L324.336 131.542L338.083 128.896L337.233 124.477L323.485 127.123ZM329.886 123.345L303.373 128.449L306.019 142.196L332.533 137.093L329.886 123.345ZM314.006 136.076L327.263 133.525L324.617 119.777L311.36 122.329L314.006 136.076ZM332.814 125.328L331.963 120.909L318.216 123.555L319.066 127.974L332.814 125.328ZM323.766 115.358L310.51 117.91L313.156 131.658L326.413 129.106L323.766 115.358ZM304.959 126.107L305.81 130.526L319.557 127.879L318.707 123.461L304.959 126.107Z" fill="black"/>
</svg>
